# xmcd
#
# Track frame offsets: 
#        150
#        11846
#        27979
#        43106
#        59818
#        75483
#        88872
#        98003
#        108748
#        128446
#        145699
#        157683
#
# Disc length: 2269 seconds
#
# Revision: 0
# Processed by: cddbd v1.5.1PL2 Copyright (c) Steve Scherf et al.
# Submitted via: ExactAudioCopy v0.95a5
#
DISCID=9408db0c
DTITLE=Slipmates - Stranger In My Own World
DYEAR=2006
DGENRE=Americana
TTITLE0=After All
TTITLE1=Day By Day
TTITLE2=You Gotta Go
TTITLE3=Desperation
TTITLE4=Gone
TTITLE5=You Gotta Get It
TTITLE6=Cold Feet
TTITLE7=Burt Reynold's Pants
TTITLE8=About A Girl
TTITLE9=Cry Over You
TTITLE10=Stranger In My Own World
TTITLE11=Whole Lotta Rosie
EXTD=
EXTT0=
EXTT1=
EXTT2=
EXTT3=
EXTT4=
EXTT5=
EXTT6=
EXTT7=
EXTT8=
EXTT9=
EXTT10=
EXTT11=
PLAYORDER=
